# xmcd CD database file
#
# Track frame offsets:
#	150
#	14695
#	30558
#	47271
#	61819
#	77626
#	95349
#	114449
#	129169
#	146498
#	157499
#	171371
#	183814
#	199296
#	212980
#
# Disc length: 3256 seconds
#
# Revision: 0
# Processed by: cddbd v1.5.2PL0 Copyright (c) Steve Scherf et al.
# Submitted via: CDex 1.70beta2
#
DISCID=cb0cb60f
DTITLE=The BossHoss - Stallion Battalion
DYEAR=2007
DGENRE=Country
TTITLE0=Stallion Battalion (Single Version)
TTITLE1=Monkey Business (Single Version)
TTITLE2=Shake and Shout
TTITLE3=Jose And Myling
TTITLE4=Free Love on a Free Love Free Way
TTITLE5=Polk Salad Annie
TTITLE6=Omniscient Lover
TTITLE7=Everything Counts (King Calavera Version)
TTITLE8=Goodbye Mary
TTITLE9=Gay Bar
TTITLE10=Truck'n'Roll Rules (Single Version)
TTITLE11=High
TTITLE12=Drop It Like It's Hot
TTITLE13=Jumpin' Around
TTITLE14=Stallion Battalion Interview
EXTD=YEAR: 2007
EXTT0=
EXTT1=
EXTT2=
EXTT3=
EXTT4=
EXTT5=
EXTT6=
EXTT7=
EXTT8=
EXTT9=
EXTT10=
EXTT11=
EXTT12=
EXTT13=
EXTT14=
PLAYORDER=
